# xmcd
#
# Track frame offsets: 
#        150
#        29119
#        54875
#        80609
#        120353
#        161714
#        208242
#        235246
#        270521
#        307095
#
# Disc length: 4626 seconds
#
# Revision: 0
# Processed by: cddbd v1.5.2PL0 Copyright (c) Steve Scherf et al.
# Submitted via: ExactAudioCopy v0.95a5
#
DISCID=8812100a
DTITLE=John Mayall and The Bluesbreakers -  Montreux 1986
DYEAR=1986
DGENRE=
TTITLE0=Ridin' On The L&M
TTITLE1=I Ain't Got You
TTITLE2=The Bear
TTITLE3=In My Mind
TTITLE4=Tell Me Mama
TTITLE5=So Many Roads
TTITLE6=One Life To Live
TTITLE7=Checkin' On My Baby
TTITLE8=Room To Move
TTITLE9=Steppin' Out 
EXTD=
EXTT0=
EXTT1=
EXTT2=
EXTT3=
EXTT4=
EXTT5=
EXTT6=
EXTT7=
EXTT8=
EXTT9=
PLAYORDER=
